<?xml version="1.0" standalone="no"?>
<!DOCTYPE svg PUBLIC "-//W3C//DTD SVG 20010904//EN"
 "http://www.w3.org/TR/2001/REC-SVG-20010904/DTD/svg10.dtd">
<svg version="1.0" xmlns="http://www.w3.org/2000/svg"
 width="348.000000pt" height="348.000000pt" viewBox="0 0 348.000000 348.000000"
 preserveAspectRatio="xMidYMid meet">

<g transform="translate(0.000000,348.000000) scale(0.100000,-0.100000)"
fill="#000000" stroke="none">
<path d="M1145 3469 c-439 -60 -825 -342 -1015 -742 -203 -426 -165 -916 103
-1317 64 -96 241 -273 337 -337 150 -100 317 -171 492 -210 117 -25 398 -25
518 1 121 26 239 69 363 134 l108 56 502 -501 c344 -344 516 -508 547 -524 60
-31 158 -32 215 -4 51 25 115 89 140 140 26 53 26 154 1 210 -13 27 -186 207
-524 547 l-505 506 66 134 c129 259 173 520 132 788 -84 555 -497 991 -1050
1105 -95 20 -332 28 -430 14z m370 -388 c342 -70 616 -327 715 -672 31 -106
39 -316 15 -430 -76 -378 -374 -674 -750 -744 -110 -21 -306 -16 -405 11 -337
90 -595 347 -684 684 -24 88 -32 280 -16 376 65 404 382 719 790 787 71 12
251 5 335 -12z"/>
</g>
</svg>
